<?xml version="1.0" encoding="UTF-8"?>
<svg width="28px" height="28px" viewBox="0 0 28 28" version="1.1" xmlns="http://www.w3.org/2000/svg" xmlns:xlink="http://www.w3.org/1999/xlink">
    <!-- Generator: Sketch 49.2 (51160) - http://www.bohemiancoding.com/sketch -->
    <title>Group 6</title>
    <desc>Created with Sketch.</desc>
    <defs></defs>
    <g id="Symbols" stroke="none" stroke-width="1" fill="none" fill-rule="evenodd">
        <g id="Group-4" transform="translate(-1898.000000, -425.000000)" fill-rule="nonzero">
            <g id="Group-6" transform="translate(1898.000000, 425.000000)">
                <ellipse id="Oval" fill="#FFFFFF" cx="13.9904286" cy="14.0045949" rx="13.895" ry="13.9662564"></ellipse>
                <path d="M13.9904286,0.0383384615 C6.31628571,0.0383384615 0.0952857143,6.29124103 0.0952857143,14.0045949 C0.0952857143,21.7180923 6.31628571,27.9709949 13.9904286,27.9709949 C21.6645714,27.9709949 27.8855714,21.7180923 27.8855714,14.0045949 C27.8854286,6.29109744 21.6644286,0.0383384615 13.9904286,0.0383384615 Z M18.1612857,8.20830769 L16.0938571,8.20830769 C15.6767143,8.28125128 15.4411429,8.51817436 15.4047143,8.90084103 L15.4047143,10.8875487 L18.1612857,10.8875487 L17.8528571,14.059159 L15.4047143,14.059159 L15.4047143,23.0086769 L11.6692857,23.0086769 L11.6692857,14.059159 L9.81957143,14.059159 L9.81957143,10.8875487 L11.6692857,10.8875487 L11.6692857,8.2081641 C11.7237143,7.42445128 11.9957143,6.69544615 12.4852857,6.07542564 C13.0837143,5.43745641 13.8815714,5.07288205 14.9152857,5.00008205 L18.1614286,5.00008205 L18.1614286,8.20830769 L18.1612857,8.20830769 Z" id="Shape" fill="#A0A0A0"></path>
            </g>
        </g>
    </g>
</svg>