<?xml version="1.0" encoding="utf-8"?>
<!-- Generator: Adobe Illustrator 22.0.1, SVG Export Plug-In . SVG Version: 6.00 Build 0)  -->
<svg version="1.1" id="图层_1" xmlns="http://www.w3.org/2000/svg" xmlns:xlink="http://www.w3.org/1999/xlink" x="0px" y="0px"
	 viewBox="0 0 28 28" style="enable-background:new 0 0 28 28;" xml:space="preserve">
<style type="text/css">
	.st0{fill:#A0A0A0;}
</style>
<path class="st0" d="M13.9,0C6.2,0,0,6.3,0,14c0,7.7,6.2,14,13.9,14s13.9-6.3,13.9-14C27.9,6.3,21.6,0,13.9,0z M16.3,15.7
	c-0.1,0.5-0.3,0.9-0.5,1.3c-0.4,0.8-1,1.6-1.8,2.2c-0.7,0.6-1.6,1-2.6,1.2c-0.5,0.1-0.9,0.2-1.4,0.2c-3.6,0-6.5-2.9-6.5-6.6
	c0-3.6,2.9-6.6,6.5-6.6c1.7,0,3.2,0.6,4.4,1.7l-1.7,1.7h-0.1c-0.7-0.6-1.6-0.9-2.6-0.9C7.8,9.9,6,11.7,6,14c0,2.3,1.8,4.1,4.1,4.1
	c1.8,0,3.3-1.2,3.8-2.8h-3.8v-2.3H14h2.3h0.1c0,0.3,0,0.6,0,0.9C16.5,14.5,16.5,15.1,16.3,15.7z M22.4,14.9v1.9h-1.9v-1.9h-1.9V13
	h1.9v-1.9h1.9V13h1.9v1.9H22.4z"/>
</svg>
