<?xml version="1.0" encoding="utf-8"?>
<!-- Generator: Adobe Illustrator 22.0.1, SVG Export Plug-In . SVG Version: 6.00 Build 0)  -->
<svg version="1.1" id="图层_1" xmlns="http://www.w3.org/2000/svg" xmlns:xlink="http://www.w3.org/1999/xlink" x="0px" y="0px"
	 viewBox="0 0 28 28" style="enable-background:new 0 0 28 28;" xml:space="preserve">
<style type="text/css">
	.st0{fill:#A0A0A0;}
</style>
<g>
	<path class="st0" d="M18.7,6.1H9.3c-1.7,0-3.2,1.4-3.2,3.2v9.4c0,1.8,1.4,3.2,3.2,3.2h9.4c1.8,0,3.2-1.4,3.2-3.2V9.3
		C21.9,7.5,20.5,6.1,18.7,6.1z M14,19.8c-3.2,0-5.8-2.6-5.8-5.8c0-3.2,2.6-5.8,5.8-5.8s5.8,2.6,5.8,5.8C19.8,17.2,17.2,19.8,14,19.8
		z M19.7,9.3c-0.5,0-0.9-0.4-0.9-0.9c0-0.5,0.4-0.9,0.9-0.9c0.5,0,0.9,0.4,0.9,0.9C20.6,8.9,20.2,9.3,19.7,9.3z"/>
	<path class="st0" d="M14,0C6.3,0,0.1,6.3,0.1,14c0,7.7,6.2,14,13.9,14s13.9-6.3,13.9-14C27.9,6.3,21.7,0,14,0z M23,18.7
		c0,2.3-1.9,4.2-4.2,4.2H9.3C6.9,23,5,21.1,5,18.7V9.3C5,6.9,6.9,5,9.3,5h9.4C21.1,5,23,6.9,23,9.3V18.7z"/>
	<path class="st0" d="M14,9.4c-2.5,0-4.6,2.1-4.6,4.6c0,2.5,2.1,4.6,4.6,4.6s4.6-2.1,4.6-4.6C18.6,11.5,16.5,9.4,14,9.4z"/>
</g>
</svg>
