<?xml version="1.0" encoding="utf-8"?>
<!-- Generator: Adobe Illustrator 22.0.1, SVG Export Plug-In . SVG Version: 6.00 Build 0)  -->
<svg version="1.1" id="图层_1" xmlns="http://www.w3.org/2000/svg" xmlns:xlink="http://www.w3.org/1999/xlink" x="0px" y="0px"
	 viewBox="0 0 28 28" style="enable-background:new 0 0 28 28;" xml:space="preserve">
<style type="text/css">
	.st0{fill:#A0A0A0;}
</style>
<path class="st0" d="M13.9,0C6.2,0,0,6.3,0,14s6.2,14,13.9,14s13.9-6.3,13.9-14S21.6,0,13.9,0z M11,19.8H8v-9.6h3V19.8z M9.5,8.9
	c-1,0-1.7-0.8-1.7-1.7c0-1,0.8-1.7,1.7-1.7c1,0,1.7,0.8,1.7,1.7C11.2,8.1,10.4,8.9,9.5,8.9z M22.2,19.8h-3v-4.7c0-1.1,0-2.6-1.6-2.6
	c-1.6,0-1.8,1.2-1.8,2.5v4.8h-3v-9.6h2.9v1.3h0c0.4-0.8,1.4-1.6,2.8-1.6c3,0,3.6,2,3.6,4.6V19.8z"/>
</svg>
