<?xml version="1.0" encoding="utf-8"?>
<!-- Generator: Adobe Illustrator 22.0.1, SVG Export Plug-In . SVG Version: 6.00 Build 0)  -->
<svg version="1.1" id="图层_1" xmlns="http://www.w3.org/2000/svg" xmlns:xlink="http://www.w3.org/1999/xlink" x="0px" y="0px"
	 viewBox="0 0 28 28" style="enable-background:new 0 0 28 28;" xml:space="preserve">
<style type="text/css">
	.st0{fill:#FFFFFF;}
	.st1{fill:#A0A0A0;}
</style>
<g id="Symbols">
	<g id="Group-4" transform="translate(-2021.000000, -425.000000)">
		<g id="Group-3" transform="translate(2021.000000, 425.000000)">
			<circle id="Oval" class="st0" cx="14" cy="14" r="14"/>
			<path id="Shape" class="st1" d="M14,0C6.3,0,0,6.3,0,14c0,7.7,6.3,14,14,14c7.7,0,14-6.3,14-14S21.7,0,14,0z M21.5,10.2
				c0.2,2.5-0.8,5.9-3.2,8.4c-2.6,2.6-8.3,4.8-13.7,1.4c1.7,0.3,4.6-0.4,5.6-1.6c-2,0-3.3-1.7-3.5-2.7c0.6,0.2,1.5,0,1.7-0.1
				c-1.4-0.2-3-1.8-3-3.9c0.8,0.5,1.3,0.4,1.7,0.5c-1.1-0.6-2.2-3-1.1-5.1c3.3,3.6,6.3,3.9,8,4c-0.8-3.2,3.3-6.6,6.6-3.5
				c0.8-0.1,2.1-0.6,2.5-0.9c-0.4,1.1-1,1.5-1.6,2.1c0.5,0,1.6-0.3,2-0.5C23.1,8.6,22.4,9.6,21.5,10.2z"/>
		</g>
	</g>
</g>
</svg>
