<?xml version="1.0" encoding="utf-8"?>
<!-- Generator: Adobe Illustrator 22.0.1, SVG Export Plug-In . SVG Version: 6.00 Build 0)  -->
<svg version="1.1" id="图层_1" xmlns="http://www.w3.org/2000/svg" xmlns:xlink="http://www.w3.org/1999/xlink" x="0px" y="0px"
	 viewBox="0 0 28 28" style="enable-background:new 0 0 28 28;" xml:space="preserve">
<style type="text/css">
	.st0{fill:#A0A0A0;}
</style>
<g>
	<path class="st0" d="M13.9,0C6.2,0,0,6.3,0,14c0,7.7,6.2,14,13.9,14s13.9-6.3,13.9-14C27.9,6.3,21.6,0,13.9,0z M22.9,16.2
		c0,2.3-0.8,4.1-3,4.1H8.2c-2.3,0-3.3-1.8-3.3-4.1v-4.4c0-2.3,0.9-4.1,3.2-4.1H20c2.3,0,3,1.8,3,4.1V16.2z"/>
	<polygon class="st0" points="12.1,16.7 17,14.1 12.1,11.5 	"/>
</g>
</svg>
